<mxfile host="65bd71144e">
    <diagram id="EX61uc8jD9se6s6HAG1L" name="Место религии">
        <mxGraphModel dx="1840" dy="1669" grid="1" gridSize="10" guides="1" tooltips="1" connect="1" arrows="1" fold="1" page="1" pageScale="1" pageWidth="850" pageHeight="1100" math="0" shadow="0">
            <root>
                <mxCell id="0"/>
                <mxCell id="1" parent="0"/>
                <mxCell id="4" value="" style="edgeStyle=none;html=1;entryX=0.5;entryY=0;entryDx=0;entryDy=0;" edge="1" parent="1" source="2" target="3">
                    <mxGeometry relative="1" as="geometry">
                        <mxPoint x="99.16666666666674" y="360" as="targetPoint"/>
                    </mxGeometry>
                </mxCell>
                <mxCell id="6" value="" style="edgeStyle=none;html=1;" edge="1" parent="1" source="2" target="5">
                    <mxGeometry relative="1" as="geometry"/>
                </mxCell>
                <mxCell id="8" value="" style="edgeStyle=none;html=1;" edge="1" parent="1" source="2" target="7">
                    <mxGeometry relative="1" as="geometry"/>
                </mxCell>
                <mxCell id="2" value="BIg History (наука)" style="rounded=0;whiteSpace=wrap;html=1;fillColor=#60a917;fontColor=#ffffff;strokeColor=#2D7600;" vertex="1" parent="1">
                    <mxGeometry x="150" y="130" width="160" height="40" as="geometry"/>
                </mxCell>
                <mxCell id="3" value="Физика" style="whiteSpace=wrap;html=1;rounded=0;" vertex="1" parent="1">
                    <mxGeometry x="90" y="210" width="120" height="30" as="geometry"/>
                </mxCell>
                <mxCell id="5" value="Хмиия" style="rounded=0;whiteSpace=wrap;html=1;" vertex="1" parent="1">
                    <mxGeometry x="150" y="260" width="120" height="30" as="geometry"/>
                </mxCell>
                <mxCell id="7" value="Биология&amp;nbsp;" style="rounded=0;whiteSpace=wrap;html=1;" vertex="1" parent="1">
                    <mxGeometry x="230" y="210" width="130" height="30" as="geometry"/>
                </mxCell>
                <mxCell id="24" style="edgeStyle=none;html=1;entryX=0;entryY=0.5;entryDx=0;entryDy=0;" edge="1" parent="1" source="9" target="11">
                    <mxGeometry relative="1" as="geometry"/>
                </mxCell>
                <mxCell id="32" style="edgeStyle=none;html=1;entryX=0;entryY=0.5;entryDx=0;entryDy=0;" edge="1" parent="1" source="9" target="10">
                    <mxGeometry relative="1" as="geometry"/>
                </mxCell>
                <mxCell id="33" style="edgeStyle=none;html=1;entryX=0.5;entryY=0;entryDx=0;entryDy=0;" edge="1" parent="1" source="9" target="2">
                    <mxGeometry relative="1" as="geometry"/>
                </mxCell>
                <mxCell id="LO2XbmmpBod8x8TF78Yh-38" style="edgeStyle=none;html=1;entryX=0;entryY=0.5;entryDx=0;entryDy=0;" edge="1" parent="1" source="9" target="LO2XbmmpBod8x8TF78Yh-37">
                    <mxGeometry relative="1" as="geometry"/>
                </mxCell>
                <mxCell id="9" value="Философия&amp;nbsp;" style="rounded=0;whiteSpace=wrap;html=1;fillColor=#60a917;fontColor=#ffffff;strokeColor=#2D7600;" vertex="1" parent="1">
                    <mxGeometry x="150" y="20" width="160" height="50" as="geometry"/>
                </mxCell>
                <mxCell id="10" value="Материализм" style="rounded=0;whiteSpace=wrap;html=1;" vertex="1" parent="1">
                    <mxGeometry x="350" y="75" width="120" height="30" as="geometry"/>
                </mxCell>
                <mxCell id="25" style="edgeStyle=none;html=1;entryX=0;entryY=0.5;entryDx=0;entryDy=0;" edge="1" parent="1" source="11" target="16">
                    <mxGeometry relative="1" as="geometry"/>
                </mxCell>
                <mxCell id="11" value="Идеализм" style="rounded=0;whiteSpace=wrap;html=1;fillColor=#60a917;fontColor=#ffffff;strokeColor=#2D7600;" vertex="1" parent="1">
                    <mxGeometry x="350" y="30" width="120" height="30" as="geometry"/>
                </mxCell>
                <mxCell id="27" style="edgeStyle=none;html=1;entryX=0;entryY=0.5;entryDx=0;entryDy=0;" edge="1" parent="1" source="16" target="17">
                    <mxGeometry relative="1" as="geometry"/>
                </mxCell>
                <mxCell id="28" style="edgeStyle=none;html=1;exitX=1;exitY=0.5;exitDx=0;exitDy=0;" edge="1" parent="1" source="16" target="26">
                    <mxGeometry relative="1" as="geometry"/>
                </mxCell>
                <mxCell id="29" style="edgeStyle=none;html=1;exitX=1;exitY=0.5;exitDx=0;exitDy=0;" edge="1" parent="1" source="16" target="18">
                    <mxGeometry relative="1" as="geometry"/>
                </mxCell>
                <mxCell id="LO2XbmmpBod8x8TF78Yh-36" style="edgeStyle=none;html=1;entryX=0.5;entryY=0;entryDx=0;entryDy=0;" edge="1" parent="1" source="16" target="LO2XbmmpBod8x8TF78Yh-34">
                    <mxGeometry relative="1" as="geometry"/>
                </mxCell>
                <mxCell id="16" value="Религия" style="rounded=0;whiteSpace=wrap;html=1;" vertex="1" parent="1">
                    <mxGeometry x="520" y="30" width="205" height="30" as="geometry"/>
                </mxCell>
                <mxCell id="17" value="Христианство" style="rounded=0;whiteSpace=wrap;html=1;" vertex="1" parent="1">
                    <mxGeometry x="910" y="30" width="120" height="30" as="geometry"/>
                </mxCell>
                <mxCell id="18" value="Буддизм" style="rounded=0;whiteSpace=wrap;html=1;" vertex="1" parent="1">
                    <mxGeometry x="770" y="60" width="120" height="30" as="geometry"/>
                </mxCell>
                <mxCell id="19" value="Почему? Зачем?" style="text;html=1;strokeColor=none;fillColor=none;align=center;verticalAlign=middle;whiteSpace=wrap;rounded=0;" vertex="1" parent="1">
                    <mxGeometry x="30" y="30" width="100" height="30" as="geometry"/>
                </mxCell>
                <mxCell id="21" value="Как?" style="text;html=1;strokeColor=none;fillColor=none;align=center;verticalAlign=middle;whiteSpace=wrap;rounded=0;" vertex="1" parent="1">
                    <mxGeometry x="40" y="125" width="60" height="30" as="geometry"/>
                </mxCell>
                <mxCell id="26" value="Ислам" style="rounded=0;whiteSpace=wrap;html=1;" vertex="1" parent="1">
                    <mxGeometry x="770" width="120" height="30" as="geometry"/>
                </mxCell>
                <mxCell id="LO2XbmmpBod8x8TF78Yh-33" value="&lt;h1 style=&quot;text-align: center&quot;&gt;Наука и философия &lt;u&gt;совместно&lt;/u&gt; позволяют создать комплексное мировоззрение&lt;/h1&gt;" style="text;html=1;strokeColor=none;fillColor=none;spacing=5;spacingTop=-20;whiteSpace=wrap;overflow=hidden;rounded=0;" vertex="1" parent="1">
                    <mxGeometry x="430" y="180" width="320" height="120" as="geometry"/>
                </mxCell>
                <mxCell id="LO2XbmmpBod8x8TF78Yh-34" value="Религия (в древние времена)" style="rounded=0;whiteSpace=wrap;html=1;" vertex="1" parent="1">
                    <mxGeometry x="520" y="130" width="205" height="40" as="geometry"/>
                </mxCell>
                <mxCell id="LO2XbmmpBod8x8TF78Yh-35" value="" style="endArrow=none;dashed=1;html=1;dashPattern=1 3;strokeWidth=2;" edge="1" parent="1">
                    <mxGeometry width="50" height="50" relative="1" as="geometry">
                        <mxPoint y="120" as="sourcePoint"/>
                        <mxPoint x="1098.0000813802083" y="120" as="targetPoint"/>
                    </mxGeometry>
                </mxCell>
                <mxCell id="LO2XbmmpBod8x8TF78Yh-37" value="Агностицизм" style="rounded=0;whiteSpace=wrap;html=1;" vertex="1" parent="1">
                    <mxGeometry x="350" y="-10" width="120" height="30" as="geometry"/>
                </mxCell>
            </root>
        </mxGraphModel>
    </diagram>
    <diagram id="M7GplkH6AO4XMxJwefJ5" name="&quot;Состав&quot; религии">
        <mxGraphModel dx="990" dy="569" grid="1" gridSize="10" guides="1" tooltips="1" connect="1" arrows="1" fold="1" page="1" pageScale="1" pageWidth="850" pageHeight="1100" math="0" shadow="0">
            <root>
                <mxCell id="x-HWWtvpiNbwq6FuIxq3-0"/>
                <mxCell id="x-HWWtvpiNbwq6FuIxq3-1" parent="x-HWWtvpiNbwq6FuIxq3-0"/>
                <mxCell id="46EKqT_s-HdEeWWv-q5h-0" value="Философия" style="rounded=0;whiteSpace=wrap;html=1;fillColor=#60a917;fontColor=#ffffff;strokeColor=#2D7600;fontSize=17;" vertex="1" parent="x-HWWtvpiNbwq6FuIxq3-1">
                    <mxGeometry x="60" y="100" width="280" height="50" as="geometry"/>
                </mxCell>
                <mxCell id="46EKqT_s-HdEeWWv-q5h-1" value="Невежество" style="rounded=0;whiteSpace=wrap;html=1;fillColor=#e51400;fontColor=#ffffff;strokeColor=#B20000;fontSize=17;" vertex="1" parent="x-HWWtvpiNbwq6FuIxq3-1">
                    <mxGeometry x="60" y="202" width="280" height="50" as="geometry"/>
                </mxCell>
                <mxCell id="46EKqT_s-HdEeWWv-q5h-2" value="Идолопокклоннечество" style="rounded=0;whiteSpace=wrap;html=1;fillColor=#e51400;fontColor=#ffffff;strokeColor=#B20000;fontSize=17;" vertex="1" parent="x-HWWtvpiNbwq6FuIxq3-1">
                    <mxGeometry x="60" y="253" width="280" height="50" as="geometry"/>
                </mxCell>
                <mxCell id="46EKqT_s-HdEeWWv-q5h-3" value="Культ" style="rounded=0;whiteSpace=wrap;html=1;fillColor=#e51400;fontColor=#ffffff;strokeColor=#B20000;fontSize=17;" vertex="1" parent="x-HWWtvpiNbwq6FuIxq3-1">
                    <mxGeometry x="60" y="304" width="280" height="50" as="geometry"/>
                </mxCell>
                <mxCell id="46EKqT_s-HdEeWWv-q5h-4" value="Подчинение и рабство" style="rounded=0;whiteSpace=wrap;html=1;fillColor=#e51400;fontColor=#ffffff;strokeColor=#B20000;fontSize=17;" vertex="1" parent="x-HWWtvpiNbwq6FuIxq3-1">
                    <mxGeometry x="60" y="355" width="280" height="50" as="geometry"/>
                </mxCell>
                <mxCell id="46EKqT_s-HdEeWWv-q5h-5" value="История и культура" style="rounded=0;whiteSpace=wrap;html=1;fillColor=#e3c800;strokeColor=#B09500;fontColor=#000000;fontSize=17;" vertex="1" parent="x-HWWtvpiNbwq6FuIxq3-1">
                    <mxGeometry x="60" y="151" width="280" height="50" as="geometry"/>
                </mxCell>
                <mxCell id="46EKqT_s-HdEeWWv-q5h-6" value="" style="shape=curlyBracket;whiteSpace=wrap;html=1;rounded=1;flipH=1;fontSize=17;" vertex="1" parent="x-HWWtvpiNbwq6FuIxq3-1">
                    <mxGeometry x="370" y="100" width="30" height="100" as="geometry"/>
                </mxCell>
                <mxCell id="46EKqT_s-HdEeWWv-q5h-7" value="" style="shape=curlyBracket;whiteSpace=wrap;html=1;rounded=1;flipH=1;fontSize=17;" vertex="1" parent="x-HWWtvpiNbwq6FuIxq3-1">
                    <mxGeometry x="370" y="204" width="30" height="196" as="geometry"/>
                </mxCell>
                <mxCell id="46EKqT_s-HdEeWWv-q5h-8" value="25%" style="text;html=1;strokeColor=none;fillColor=none;align=center;verticalAlign=middle;whiteSpace=wrap;rounded=0;fontSize=17;" vertex="1" parent="x-HWWtvpiNbwq6FuIxq3-1">
                    <mxGeometry x="400" y="135" width="60" height="30" as="geometry"/>
                </mxCell>
                <mxCell id="46EKqT_s-HdEeWWv-q5h-9" value="75%" style="text;html=1;strokeColor=none;fillColor=none;align=center;verticalAlign=middle;whiteSpace=wrap;rounded=0;fontSize=17;" vertex="1" parent="x-HWWtvpiNbwq6FuIxq3-1">
                    <mxGeometry x="400" y="287" width="60" height="30" as="geometry"/>
                </mxCell>
                <mxCell id="46EKqT_s-HdEeWWv-q5h-10" value="&lt;h1&gt;Ингредиенты религии&lt;/h1&gt;" style="text;html=1;strokeColor=none;fillColor=none;spacing=5;spacingTop=-20;whiteSpace=wrap;overflow=hidden;rounded=0;fontSize=17;" vertex="1" parent="x-HWWtvpiNbwq6FuIxq3-1">
                    <mxGeometry x="20" y="30" width="420" height="60" as="geometry"/>
                </mxCell>
            </root>
        </mxGraphModel>
    </diagram>
</mxfile>